<?xml version="1.0" encoding="utf-8"?>
<!-- Generator: Adobe Illustrator 26.0.3, SVG Export Plug-In . SVG Version: 6.00 Build 0)  -->
<svg version="1.1" id="Layer_1" xmlns="http://www.w3.org/2000/svg" xmlns:xlink="http://www.w3.org/1999/xlink" x="0px" y="0px"
	 viewBox="0 0 455.77 130.85" style="enable-background:new 0 0 455.77 130.85;" xml:space="preserve">
<style type="text/css">
	.st0{fill:#111927;}
	.st1{fill:#A68A56;}
</style>
<g>
	<g>
		<path class="st0" d="M9.52,12.33h16.3c16.22,0,19.15,6.9,19.15,22.6v22c0,15.18-3.54,22-19.32,22H9.52V12.33z M13.83,16.21V74.7
			h11.82c14.58,0,15.01-6.3,15.01-17.77V34.76c0-11.56-0.43-18.55-15.01-18.55H13.83z"/>
		<path class="st0" d="M61.36,78.92h-4.57V12.33h4.57V78.92z"/>
		<path class="st0" d="M73.87,78.92h-4.49l17.08-66.59h4.74l17.08,66.59h-4.57L99.4,62.54h-21.3L73.87,78.92z M88.88,18.63
			l-9.75,39.85h19.32l-9.49-39.85H88.88z"/>
		<path class="st0" d="M146.41,78.92h-30.1V12.33h4.31v62.62h25.79V78.92z"/>
		<path class="st0" d="M154.95,78.92h-4.48l17.08-66.59h4.74l17.08,66.59h-4.57l-4.31-16.39h-21.31L154.95,78.92z M169.96,18.63
			l-9.75,39.85h19.32l-9.49-39.85H169.96z"/>
		<path class="st0" d="M215.85,22.6c-6.55,0-9.23,2.07-9.23,8.37c0,8.37,6.64,7.68,16.73,9.23c7.68,1.21,15.01,4.31,15.01,17.6
			c0,15.35-6.64,21.82-22.6,21.82c-16.56,0-21.82-8.02-21.82-18.72h11.99c0.26,5.09,2.5,7.85,10.09,7.85
			c7.16,0,10.44-3.02,10.44-10.52c0-7.85-9.31-7.85-16.39-8.8c-7.5-0.95-15.44-4.66-15.44-18.37c0-12.42,7.59-18.89,21.22-18.89
			c11.99,0,19.93,4.4,21.05,17.68h-11.99C224.57,24.24,221.63,22.6,215.85,22.6z"/>
		<path class="st0" d="M287.1,78.92h-37.61V12.5h11.99v55.55h25.62V78.92z"/>
		<path class="st0" d="M334.63,12.5v10.35h-26.31v17.08h22.43v10.7h-22.43v17.51h27.52v10.87h-39.42V12.5H334.63z"/>
		<path class="st0" d="M384.49,12.5v10.35h-26.31v17.08h22.43v10.7h-22.43v17.51h27.52v10.87h-39.42V12.5H384.49z"/>
		<path class="st0" d="M419.86,63.22l-13.2-26.74l1.38,18.98v23.46h-11.9V12.5h11.47l13.54,29.41l13.63-29.41h11.47v66.42h-11.9
			V55.46l1.38-18.98l-13.2,26.74H419.86z"/>
	</g>
	<g>
		<g>
			<path class="st1" d="M22.03,101.07c-0.12-3.76-1.2-5.27-5.39-5.27c-5.21,0-5.36,2.49-5.36,6.53v8.35c0,3.64,0.15,6.38,5.36,6.38
				c4.59,0,5.48-2,5.48-5.85v-3.73h-5.45v-1.39h6.84v5.11c0,4.9-1.23,7.39-6.87,7.39c-5.64,0-6.9-2.5-6.9-7.92v-8.32
				c0-5.58,1.17-7.95,6.9-7.95c5.24,0,6.65,2.12,6.78,6.62L22.03,101.07z"/>
			<path class="st1" d="M50,109.64l5.02,8.81h-1.91l-4.87-8.78h-3.45v8.78h-1.63V94.66h5.73c3.88,0,5.7,1.48,5.7,6.96v1.82
				C54.59,107.82,53.11,109.36,50,109.64z M48.89,108.22c3.33,0,4.16-1.02,4.16-4.8v-1.79c0-3.88-0.62-5.39-4.16-5.39h-4.1v11.98
				H48.89z"/>
			<path class="st1" d="M73.38,118.45h-1.6l6.1-23.78h1.7l6.1,23.78h-1.63l-1.54-5.85h-7.61L73.38,118.45z M78.74,96.91l-3.48,14.23
				h6.9l-3.39-14.23H78.74z"/>
			<path class="st1" d="M105.58,110.1v8.35h-1.63V94.66h5.73c3.88,0,5.7,1.23,5.7,6.65v2.06c0,5.18-1.82,6.72-5.7,6.72H105.58z
				 M109.67,108.62c3.33,0,4.16-1.42,4.16-5.21v-1.94c0-3.79-0.62-5.33-4.16-5.33h-4.1v12.48H109.67z"/>
			<path class="st1" d="M146.12,118.45h-1.54v-11.86h-8.32v11.86h-1.6V94.66h1.6v10.38h8.32V94.66h1.54V118.45z"/>
			<path class="st1" d="M167.87,118.45h-1.63V94.66h1.63V118.45z"/>
			<path class="st1" d="M199.17,100.73c0-3.36-0.92-5.02-4.81-5.02c-4.84,0-5.18,2.71-5.18,6.56v8.47c0,4.1,0.34,6.5,5.18,6.5
				c4.01,0,4.68-1.6,4.84-5.02h1.42c-0.15,4.28-1.36,6.44-6.25,6.44c-5.45,0-6.69-2.5-6.69-7.86v-8.41c0-5.3,1.14-8.04,6.69-8.04
				c4.87,0,6.25,2.06,6.25,6.38H199.17z"/>
			<path class="st1" d="M219.99,94.66h5.82c5.79,0,6.84,2.46,6.84,8.07v7.86c0,5.42-1.26,7.86-6.9,7.86h-5.76V94.66z M221.54,96.05
				v20.89h4.22c5.21,0,5.36-2.25,5.36-6.35v-7.92c0-4.13-0.15-6.62-5.36-6.62H221.54z"/>
			<path class="st1" d="M263.03,94.66v1.42h-9.21v8.93h8.29v1.45h-8.29v10.47h9.83v1.51h-11.37V94.66H263.03z"/>
			<path class="st1" d="M292.95,99.72c-0.03-2.9-1.88-3.97-4.62-3.97c-3.21,0-4.99,1.02-4.99,4.9c0,4.31,2.56,4.25,6.19,4.68
				c3.48,0.46,5.48,2.74,5.48,6.22c0,5.85-2.8,7.15-6.93,7.15c-4.19-0.03-6.31-1.82-6.31-5.64h1.48c0,2.93,1.66,4.16,4.87,4.16
				c3.94-0.03,5.33-1.6,5.33-5.7c0-4.22-2.96-4.74-6.5-5.08c-2.46-0.25-5.12-1.33-5.12-5.79c0-4.47,2.22-6.25,6.53-6.29
				c3.33,0,5.88,1.14,6.07,5.36H292.95z"/>
			<path class="st1" d="M316.02,118.45h-1.63V94.66h1.63V118.45z"/>
			<path class="st1" d="M348.06,101.07c-0.12-3.76-1.2-5.27-5.39-5.27c-5.21,0-5.36,2.49-5.36,6.53v8.35c0,3.64,0.15,6.38,5.36,6.38
				c4.59,0,5.48-2,5.48-5.85v-3.73h-5.45v-1.39h6.84v5.11c0,4.9-1.23,7.39-6.87,7.39c-5.64,0-6.9-2.5-6.9-7.92v-8.32
				c0-5.58,1.17-7.95,6.9-7.95c5.24,0,6.65,2.12,6.78,6.62L348.06,101.07z"/>
			<path class="st1" d="M380.66,118.42h-1.79l-8.23-20.18h-0.06l0.21,7.46v12.72h-1.63V94.66h1.63l8.44,20.39h0.06l-0.28-8.47V94.66
				h1.63V118.42z"/>
			<path class="st1" d="M411.52,94.66v1.42h-9.21v8.93h8.29v1.45h-8.29v10.47h9.83v1.51h-11.37V94.66H411.52z"/>
			<path class="st1" d="M438.11,109.64l5.02,8.81h-1.91l-4.87-8.78h-3.45v8.78h-1.63V94.66H437c3.88,0,5.7,1.48,5.7,6.96v1.82
				C442.7,107.82,441.22,109.36,438.11,109.64z M437,108.22c3.33,0,4.16-1.02,4.16-4.8v-1.79c0-3.88-0.62-5.39-4.16-5.39h-4.1v11.98
				H437z"/>
		</g>
	</g>
</g>
</svg>
