<?xml version="1.0" encoding="utf-8"?>
<!-- Generator: Adobe Illustrator 26.0.3, SVG Export Plug-In . SVG Version: 6.00 Build 0)  -->
<svg version="1.1" id="Layer_1" xmlns="http://www.w3.org/2000/svg" xmlns:xlink="http://www.w3.org/1999/xlink" x="0px" y="0px"
	 viewBox="0 0 227.78 280.85" style="enable-background:new 0 0 227.78 280.85;" xml:space="preserve">
<style type="text/css">
	.st0{fill:url(#SVGID_1_);}
	.st1{fill:url(#SVGID_00000003811852768675457690000007778984731728031125_);}
	.st2{fill:url(#SVGID_00000091015244538288203800000007629531102845269415_);}
	.st3{fill:#A68A56;}
	.st4{fill:url(#SVGID_00000140728785518948669200000001108719896764932515_);}
	.st5{fill:url(#SVGID_00000142153013976898651030000011482581439314683274_);}
	.st6{fill:url(#SVGID_00000174590432374553367630000012942213550510356667_);}
	.st7{fill:url(#SVGID_00000048486019730007541980000006358492568652510388_);}
	.st8{fill:url(#SVGID_00000142174274336607167880000012012995595436823454_);}
	.st9{fill:url(#SVGID_00000049195295005012238260000000171468851664045717_);}
	.st10{fill:url(#SVGID_00000103261081316523000820000017867664863275716503_);}
	.st11{fill:url(#SVGID_00000013892939403942997320000017939607080599174053_);}
	.st12{fill:url(#SVGID_00000044150032110817944320000012040777889931409544_);}
	.st13{fill:url(#SVGID_00000048471495767679308440000009312792268536327102_);}
	.st14{fill:url(#SVGID_00000059999456614730627150000017700228224364336313_);}
	.st15{fill:url(#SVGID_00000013181383266486733680000009788718045146222990_);}
</style>
<g>
	<g>
		
			<radialGradient id="SVGID_1_" cx="-1242.3293" cy="4943.1113" r="64.392" gradientTransform="matrix(0.5683 0.3094 -0.2078 0.3816 1839.8663 -1262.4817)" gradientUnits="userSpaceOnUse">
			<stop  offset="0" style="stop-color:#594725"/>
			<stop  offset="1" style="stop-color:#FFFFFF;stop-opacity:0"/>
		</radialGradient>
		<path class="st0" d="M140.14,257.43c-7.99,14.67-19.92,23.81-41.76,11.92c-21.84-11.89-33.07-33.43-25.09-48.09
			c7.99-14.67,32.17-16.92,54.01-5.03C149.15,228.13,148.13,242.76,140.14,257.43z"/>
		<g>
			<g>
				<g>
					
						<linearGradient id="SVGID_00000126305842522129849590000006787663276940125340_" gradientUnits="userSpaceOnUse" x1="-133.5979" y1="-2480.6838" x2="-54.9018" y2="-2480.6838" gradientTransform="matrix(0.7987 -0.6018 0.6018 0.7987 1716.8264 2110.1946)">
						<stop  offset="0" style="stop-color:#FFFFFF"/>
						<stop  offset="0.7239" style="stop-color:#A68A56"/>
					</linearGradient>
					<polygon style="fill:url(#SVGID_00000126305842522129849590000006787663276940125340_);" points="125.79,220.32 120.59,213.71 
						163.91,156.63 175.39,155.66 					"/>
					
						<linearGradient id="SVGID_00000002359713707919220770000017536689601361650840_" gradientUnits="userSpaceOnUse" x1="-96.9594" y1="-2529.9895" x2="-98.9766" y2="-2599.2434" gradientTransform="matrix(0.7987 -0.6018 0.6018 0.7987 1716.8264 2110.1946)">
						<stop  offset="0" style="stop-color:#FFFFFF"/>
						<stop  offset="1" style="stop-color:#A68A56"/>
					</linearGradient>
					<polygon style="fill:url(#SVGID_00000002359713707919220770000017536689601361650840_);" points="55.92,131.38 44.24,136.93 
						124.57,239.39 189.07,152.11 134.98,71.18 31.07,117.75 22.35,129.1 127,82.91 175.39,155.66 125.86,220.07 					"/>
					<polygon class="st3" points="124.57,239.39 107.65,242.32 22.35,129.1 127,82.91 175.39,155.66 163.91,156.63 123.13,99.82 
						44.5,136.93 					"/>
				</g>
				<g>
					
						<linearGradient id="SVGID_00000154384745393669725560000012407610541231792046_" gradientUnits="userSpaceOnUse" x1="-88.0718" y1="-2536.072" x2="-11.8223" y2="-2536.072" gradientTransform="matrix(0.7987 -0.6018 0.6018 0.7987 1716.8264 2110.1946)">
						<stop  offset="0" style="stop-color:#FFFFFF"/>
						<stop  offset="0.7239" style="stop-color:#A68A56"/>
					</linearGradient>
					<polygon style="fill:url(#SVGID_00000154384745393669725560000012407610541231792046_);" points="180.68,91.1 169.21,92.07 
						158.43,106.29 163.46,113.8 					"/>
					
						<linearGradient id="SVGID_00000134245766534295497660000002357520264195586961_" gradientUnits="userSpaceOnUse" x1="-90.5157" y1="-2523.0715" x2="-11.0736" y2="-2523.0715" gradientTransform="matrix(0.7987 -0.6018 0.6018 0.7987 1716.8264 2110.1946)">
						<stop  offset="0" style="stop-color:#FFFFFF"/>
						<stop  offset="0.7239" style="stop-color:#A68A56"/>
					</linearGradient>
					<polygon style="fill:url(#SVGID_00000134245766534295497660000002357520264195586961_);" points="142.76,126.99 125.9,149.16 
						131.09,155.75 147.87,133.77 					"/>
					
						<linearGradient id="SVGID_00000138567042259934479760000015675042727243716503_" gradientUnits="userSpaceOnUse" x1="-53.9447" y1="-2578.0774" x2="-55.9692" y2="-2647.5796" gradientTransform="matrix(0.7987 -0.6018 0.6018 0.7987 1716.8264 2110.1946)">
						<stop  offset="0" style="stop-color:#FFFFFF"/>
						<stop  offset="1" style="stop-color:#A68A56"/>
					</linearGradient>
					<polygon style="fill:url(#SVGID_00000138567042259934479760000015675042727243716503_);" points="36.32,53.24 27.59,64.58 
						132.24,18.4 180.62,91.14 163.46,113.8 168.92,122.11 194.31,87.59 140.22,6.66 					"/>
				</g>
			</g>
			<g>
				
					<linearGradient id="SVGID_00000113331230577306075250000017018418917101273022_" gradientUnits="userSpaceOnUse" x1="-133.5979" y1="-2480.6838" x2="-54.9018" y2="-2480.6838" gradientTransform="matrix(0.7987 -0.6018 0.6018 0.7987 1716.8264 2110.1946)">
					<stop  offset="0" style="stop-color:#FFFFFF"/>
					<stop  offset="0.7239" style="stop-color:#A68A56"/>
				</linearGradient>
				<polygon style="fill:url(#SVGID_00000113331230577306075250000017018418917101273022_);" points="125.79,220.32 120.59,213.71 
					163.91,156.63 175.39,155.66 				"/>
				
					<linearGradient id="SVGID_00000081609122530390986860000001365919052594362041_" gradientUnits="userSpaceOnUse" x1="-96.9594" y1="-2529.9895" x2="-98.9766" y2="-2599.2434" gradientTransform="matrix(0.7987 -0.6018 0.6018 0.7987 1716.8264 2110.1946)">
					<stop  offset="0" style="stop-color:#FFFFFF"/>
					<stop  offset="1" style="stop-color:#A68A56"/>
				</linearGradient>
				<polygon style="fill:url(#SVGID_00000081609122530390986860000001365919052594362041_);" points="55.92,131.38 44.24,136.93 
					124.57,239.39 189.07,152.11 134.98,71.18 31.07,117.75 22.35,129.1 127,82.91 175.39,155.66 125.86,220.07 				"/>
				<polygon class="st3" points="124.57,239.39 107.65,242.32 22.35,129.1 127,82.91 175.39,155.66 163.91,156.63 123.13,99.82 
					44.5,136.93 				"/>
			</g>
			
				<linearGradient id="SVGID_00000121994195651226010580000000593152865049962922_" gradientUnits="userSpaceOnUse" x1="-88.0718" y1="-2536.072" x2="-11.8223" y2="-2536.072" gradientTransform="matrix(0.7987 -0.6018 0.6018 0.7987 1716.8264 2110.1946)">
				<stop  offset="0" style="stop-color:#FFFFFF"/>
				<stop  offset="0.7239" style="stop-color:#A68A56"/>
			</linearGradient>
			<polygon style="fill:url(#SVGID_00000121994195651226010580000000593152865049962922_);" points="180.68,91.1 169.21,92.07 
				158.43,106.29 163.46,113.8 			"/>
			
				<linearGradient id="SVGID_00000008114020420238766530000001638301884732197031_" gradientUnits="userSpaceOnUse" x1="-53.9447" y1="-2578.0774" x2="-55.9692" y2="-2647.5796" gradientTransform="matrix(0.7987 -0.6018 0.6018 0.7987 1716.8264 2110.1946)">
				<stop  offset="0" style="stop-color:#FFFFFF"/>
				<stop  offset="1" style="stop-color:#A68A56"/>
			</linearGradient>
			<polygon style="fill:url(#SVGID_00000008114020420238766530000001638301884732197031_);" points="36.32,53.24 27.59,64.58 
				132.24,18.4 180.62,91.14 163.46,113.8 168.92,122.11 194.31,87.59 140.22,6.66 			"/>
			<g>
				
					<linearGradient id="SVGID_00000070819292004143199990000013665403442375820682_" gradientUnits="userSpaceOnUse" x1="-133.5979" y1="-2480.6838" x2="-54.9018" y2="-2480.6838" gradientTransform="matrix(0.7987 -0.6018 0.6018 0.7987 1716.8264 2110.1946)">
					<stop  offset="0" style="stop-color:#FFFFFF"/>
					<stop  offset="0.7239" style="stop-color:#A68A56"/>
				</linearGradient>
				<polygon style="fill:url(#SVGID_00000070819292004143199990000013665403442375820682_);" points="125.79,220.32 120.59,213.71 
					163.91,156.63 175.39,155.66 				"/>
				
					<linearGradient id="SVGID_00000131336473799496697550000013722963007265038241_" gradientUnits="userSpaceOnUse" x1="-96.9594" y1="-2529.9895" x2="-98.9766" y2="-2599.2434" gradientTransform="matrix(0.7987 -0.6018 0.6018 0.7987 1716.8264 2110.1946)">
					<stop  offset="0" style="stop-color:#FFFFFF"/>
					<stop  offset="1" style="stop-color:#A68A56"/>
				</linearGradient>
				<polygon style="fill:url(#SVGID_00000131336473799496697550000013722963007265038241_);" points="55.92,131.38 44.24,136.93 
					124.57,239.39 189.07,152.11 134.98,71.18 31.07,117.75 22.35,129.1 127,82.91 175.39,155.66 125.86,220.07 				"/>
				<polygon class="st3" points="124.57,239.39 107.65,242.32 22.35,129.1 127,82.91 175.39,155.66 163.91,156.63 123.13,99.82 
					44.5,136.93 				"/>
				<polygon class="st3" points="124.57,239.39 107.65,242.32 22.35,129.1 127,82.91 175.39,155.66 163.91,156.63 123.13,99.82 
					44.5,136.93 				"/>
			</g>
			
				<linearGradient id="SVGID_00000165236623830984724960000002436017144283686814_" gradientUnits="userSpaceOnUse" x1="-88.0718" y1="-2536.072" x2="-11.8223" y2="-2536.072" gradientTransform="matrix(0.7987 -0.6018 0.6018 0.7987 1716.8264 2110.1946)">
				<stop  offset="0" style="stop-color:#FFFFFF"/>
				<stop  offset="0.7239" style="stop-color:#A68A56"/>
			</linearGradient>
			<polygon style="fill:url(#SVGID_00000165236623830984724960000002436017144283686814_);" points="180.68,91.1 169.21,92.07 
				158.43,106.29 163.46,113.8 			"/>
			
				<linearGradient id="SVGID_00000031912608432181231430000005836362042782239634_" gradientUnits="userSpaceOnUse" x1="-88.0718" y1="-2536.072" x2="-11.8223" y2="-2536.072" gradientTransform="matrix(0.7987 -0.6018 0.6018 0.7987 1716.8264 2110.1946)">
				<stop  offset="0" style="stop-color:#FFFFFF"/>
				<stop  offset="0.7239" style="stop-color:#A68A56"/>
			</linearGradient>
			<polygon style="fill:url(#SVGID_00000031912608432181231430000005836362042782239634_);" points="180.68,91.1 169.21,92.07 
				158.43,106.29 163.46,113.8 			"/>
			
				<linearGradient id="SVGID_00000083788245049774552710000002936685578352043964_" gradientUnits="userSpaceOnUse" x1="-85.1723" y1="-2577.4536" x2="-87.1895" y2="-2646.7092" gradientTransform="matrix(0.7987 -0.6018 0.6018 0.7987 1716.8264 2110.1946)">
				<stop  offset="0" style="stop-color:#FFFFFF"/>
				<stop  offset="1" style="stop-color:#A68A56"/>
			</linearGradient>
			<polygon style="fill:url(#SVGID_00000083788245049774552710000002936685578352043964_);" points="147.87,133.77 131.16,155.51 
				60.74,66.22 49.79,72.37 129.86,174.83 154.1,142.04 			"/>
			<polygon class="st3" points="129.86,174.83 112.95,177.75 27.65,64.54 132.3,18.35 180.68,91.1 169.21,92.07 128.42,35.25 
				49.79,72.37 			"/>
			<polygon class="st3" points="129.86,174.83 112.95,177.75 27.65,64.54 132.3,18.35 180.68,91.1 169.21,92.07 128.42,35.25 
				49.79,72.37 			"/>
		</g>
	</g>
</g>
</svg>
